{
	"asset":{
		"generator":"Khronos glTF Blender I/O v4.5.48",
		"version":"2.0"
	},
	"scene":0,
	"scenes":[
		{
			"extras":{
				"keentools_ft_settings":{},
				"keentools_fb_settings":{}
			},
			"name":"Scene",
			"nodes":[
				6
			]
		}
	],
	"nodes":[
		{
			"name":"tip",
			"translation":[
				1.4652819402272144e-08,
				6.495449066162109,
				0.03762783482670784
			]
		},
		{
			"children":[
				0
			],
			"name":"leg_out",
			"rotation":[
				1.6255062186167878e-43,
				-1.4210854715202004e-14,
				3.761585509955389e-37,
				1
			],
			"translation":[
				3.362519608504563e-29,
				8.835559844970703,
				0
			]
		},
		{
			"children":[
				1
			],
			"name":"leg_mid",
			"rotation":[
				-1.7953712148882844e-36,
				1.4210854715202004e-14,
				-4.610439307201917e-30,
				1
			],
			"scale":[
				1,
				0.9999999403953552,
				1
			],
			"translation":[
				1.5067243289721325e-28,
				9.042396545410156,
				-4.558567092488831e-35
			]
		},
		{
			"children":[
				2
			],
			"name":"leg_in",
			"rotation":[
				1.1839416947617819e-23,
				0,
				6.080626520445478e-17,
				1
			],
			"translation":[
				3.3671635070829665e-29,
				3.6516733169555664,
				1.262177448353619e-29
			]
		},
		{
			"children":[
				3
			],
			"name":"leg",
			"rotation":[
				0.7071067690849304,
				-1.376787679419067e-07,
				-1.376787679419067e-07,
				0.7071067690849304
			]
		},
		{
			"mesh":0,
			"name":"Cube",
			"skin":0
		},
		{
			"children":[
				5,
				4
			],
			"name":"Armature"
		}
	],
	"materials":[
		{
			"doubleSided":true,
			"name":"Material",
			"pbrMetallicRoughness":{
				"baseColorFactor":[
					0.800000011920929,
					0.800000011920929,
					0.800000011920929,
					1
				],
				"metallicFactor":0,
				"roughnessFactor":0.5
			}
		}
	],
	"meshes":[
		{
			"name":"Cube",
			"primitives":[
				{
					"attributes":{
						"POSITION":0,
						"NORMAL":1,
						"TEXCOORD_0":2,
						"TANGENT":3,
						"JOINTS_0":4,
						"WEIGHTS_0":5
					},
					"indices":6,
					"material":0
				}
			]
		}
	],
	"skins":[
		{
			"inverseBindMatrices":7,
			"joints":[
				4,
				3,
				2,
				1,
				0
			],
			"name":"Armature"
		}
	],
	"accessors":[
		{
			"bufferView":0,
			"componentType":5126,
			"count":88,
			"max":[
				0.5916115641593933,
				0.5070452094078064,
				28.26011848449707
			],
			"min":[
				-0.591488778591156,
				-0.5363029837608337,
				2.0012881755828857
			],
			"type":"VEC3"
		},
		{
			"bufferView":1,
			"componentType":5126,
			"count":88,
			"type":"VEC3"
		},
		{
			"bufferView":2,
			"componentType":5126,
			"count":88,
			"type":"VEC2"
		},
		{
			"bufferView":3,
			"componentType":5126,
			"count":88,
			"type":"VEC4"
		},
		{
			"bufferView":4,
			"componentType":5121,
			"count":88,
			"type":"VEC4"
		},
		{
			"bufferView":5,
			"componentType":5126,
			"count":88,
			"type":"VEC4"
		},
		{
			"bufferView":6,
			"componentType":5123,
			"count":126,
			"type":"SCALAR"
		},
		{
			"bufferView":7,
			"componentType":5126,
			"count":5,
			"type":"MAT4"
		}
	],
	"bufferViews":[
		{
			"buffer":0,
			"byteLength":1056,
			"byteOffset":0,
			"target":34962
		},
		{
			"buffer":0,
			"byteLength":1056,
			"byteOffset":1056,
			"target":34962
		},
		{
			"buffer":0,
			"byteLength":704,
			"byteOffset":2112,
			"target":34962
		},
		{
			"buffer":0,
			"byteLength":1408,
			"byteOffset":2816,
			"target":34962
		},
		{
			"buffer":0,
			"byteLength":352,
			"byteOffset":4224,
			"target":34962
		},
		{
			"buffer":0,
			"byteLength":1408,
			"byteOffset":4576,
			"target":34962
		},
		{
			"buffer":0,
			"byteLength":252,
			"byteOffset":5984,
			"target":34963
		},
		{
			"buffer":0,
			"byteLength":320,
			"byteOffset":6236
		}
	],
	"buffers":[
		{
			"byteLength":6556,
			"uri":"spider_leg-4eea0e8a9fd3da0f82fc5af3c9bc63cd.bin"
		}
	]
}
